<?xml version="1.0" encoding="UTF-8"?> <svg xmlns="http://www.w3.org/2000/svg" width="158" height="59" viewBox="0 0 158 59" fill="none"><g clip-path="url(#clip0_142_30)"><path fill-rule="evenodd" clip-rule="evenodd" d="M143.636 9.03516C144.76 9.03516 145.58 9.31889 146.096 9.88654C146.627 10.4542 146.893 11.3595 146.893 12.6022V18.0103C146.893 18.2711 146.946 18.4706 147.053 18.6086C147.159 18.7467 147.311 18.8158 147.508 18.8158C147.675 18.8158 147.858 18.7698 148.055 18.6778C148.267 18.5858 148.442 18.486 148.579 18.3786L148.738 19C148.495 19.2915 148.184 19.5217 147.804 19.6905C147.425 19.8592 147.06 19.9436 146.711 19.9436C146.225 19.9435 145.846 19.7901 145.572 19.4833C145.299 19.1611 145.162 18.7085 145.162 18.1256H145.071C144.646 18.7085 144.122 19.1611 143.5 19.4833C142.877 19.7901 142.217 19.9435 141.518 19.9436C140.805 19.9436 140.212 19.7364 139.742 19.3222C139.271 18.8926 139.036 18.3249 139.036 17.6192C139.036 16.7447 139.309 16.0311 139.856 15.4788C140.417 14.9265 141.252 14.5199 142.361 14.2591L145.048 13.6373V12.0959C145.048 11.2828 144.912 10.692 144.638 10.3237C144.365 9.94019 143.94 9.74848 143.363 9.74848C142.665 9.74848 142.125 9.96328 141.746 10.3929C141.366 10.8071 141.176 11.4132 141.176 12.2109C141.101 12.2876 140.994 12.349 140.858 12.395C140.721 12.441 140.584 12.4642 140.448 12.4642C140.19 12.4642 139.985 12.3873 139.833 12.2339C139.681 12.0805 139.605 11.8734 139.605 11.6126C139.605 11.1063 139.78 10.6614 140.129 10.2779C140.478 9.89431 140.956 9.59496 141.564 9.38018C142.186 9.15008 142.877 9.03516 143.636 9.03516ZM142.771 14.9035C142.118 15.057 141.617 15.3255 141.268 15.709C140.933 16.0772 140.767 16.5452 140.767 17.1129C140.767 17.6498 140.911 18.0795 141.199 18.4017C141.488 18.7084 141.883 18.8619 142.384 18.8619C142.93 18.8619 143.454 18.7237 143.955 18.4475C144.39 18.2078 144.762 17.8869 145.071 17.4852V14.3529L142.771 14.9035Z" fill="#141414"></path><path fill-rule="evenodd" clip-rule="evenodd" d="M143.322 0.00112975C151.339 0.103732 157.806 6.70198 157.806 14.8264L157.804 15.018C157.703 23.118 151.173 29.6527 143.132 29.6527L142.943 29.6513C134.989 29.5495 128.561 23.0542 128.46 15.018L128.459 14.8264C128.459 6.63801 135.029 0 143.132 0L143.322 0.00112975ZM143.132 1.85098C136.04 1.85098 130.291 7.66028 130.291 14.8264C130.291 21.9924 136.04 27.8017 143.132 27.8017C150.225 27.8017 155.974 21.9924 155.974 14.8264C155.974 7.66028 150.225 1.85099 143.132 1.85098Z" fill="#141414"></path><path d="M120.431 16.3876V29.4994L113.943 32.778V42.6113L107.456 45.8876L100.967 42.6113V19.6661L107.456 16.3876V39.3328L113.424 42.3476V32.5142L107.456 29.4994L113.943 26.2209V19.6661L107.456 16.3876L113.943 13.1113L120.431 16.3876Z" fill="#141414"></path><path d="M94.4799 16.3876V52.4447L87.9927 55.8042V55.7232L81.5033 58.9994L75.0161 55.7232L81.2262 52.5858V45.7487L75.0161 42.6113V19.6661L81.5033 16.3876V39.3328L87.9927 42.6113L81.7826 45.7464V52.5858L87.9927 55.7209V19.6661L81.5033 16.3876L87.9927 13.1113L94.4799 16.3876Z" fill="#141414"></path><path d="M71.7712 16.3876V19.6661H65.2841V42.609H65.2818L65.2841 42.6113L58.7969 45.8876L52.3075 42.6113V19.6661L45.8203 16.3876L52.3075 13.1113L58.7969 16.3876V39.3328L64.7322 42.3314V19.3885L58.7969 16.3876L65.2841 13.1113L71.7712 16.3876Z" fill="#141414"></path><path d="M42.5754 16.3876V39.3328L36.0882 42.609V19.6661L29.6011 16.3876L36.0882 13.1113L42.5754 16.3876Z" fill="#141414"></path><path d="M23.1136 19.6672L29.6008 16.3887V39.3339L36.0879 42.6124L29.6008 45.8887L23.1113 42.6124V39.3339H23.1136V19.6672Z" fill="#141414"></path><path d="M25.9509 3.27855V6.55478H19.4638V16.3904L12.9743 19.6667V42.6119L6.48716 45.8881L0 42.6119L6.48716 39.3333V16.3904L0 19.6667V13.1119H6.48716V6.55478L0 3.27855L6.48716 0L12.9743 3.27855V13.1119H18.944V6.29333L12.9743 3.27855L19.4638 0L25.9509 3.27855Z" fill="#141414"></path></g><defs><clipPath id="clip0_142_30"><rect width="158" height="59" fill="white"></rect></clipPath></defs></svg> 